<?xml version="1.0" encoding="utf-8"?>
<!-- Generator: Adobe Illustrator 27.0.1, SVG Export Plug-In . SVG Version: 6.00 Build 0)  -->
<svg version="1.1" id="Layer_1" xmlns="http://www.w3.org/2000/svg" xmlns:xlink="http://www.w3.org/1999/xlink" x="0px" y="0px"
	 viewBox="0 0 384 512" style="enable-background:new 0 0 384 512;" xml:space="preserve">
<style type="text/css">
	.st0{font-family:'Impact';}
	.st1{font-size:258.3799px;}
	.st2{fill:none;stroke:#000000;stroke-width:10;stroke-miterlimit:10;}
</style>
<path d="M64,464c-8.8,0-16-7.2-16-16V64c0-8.8,7.2-16,16-16h160v80c0,17.7,14.3,32,32,32h80v288c0,8.8-7.2,16-16,16H64z M64,0
	C28.7,0,0,28.7,0,64v384c0,35.3,28.7,64,64,64h256c35.3,0,64-28.7,64-64V154.5c0-17-6.7-33.3-18.7-45.3l-90.6-90.5
	C262.7,6.7,246.5,0,229.5,0H64z"/>
<text transform="matrix(0.922 0 0 1 58 376.6396)" class="st0 st1">CV</text>
<path class="st2" d="M157,439.4c9.9-11.9,19.6-24,29.2-36.4c3.4,14.9,10.3,28.1,19.3,37c6.7-2.3,3.6-20.8,10.2-23.6
	c3.7-1.6,6.9,3.4,9.4,7.6c5.3,9,15,16.8,21.1,8.9c4.6-5.9,3.9-17.6,9-22.6c4.7,7.4,2.1,23.1,8.8,25.6c7.8,2.8,12.1-18.8,19.8-15.7
	c2,0.8,3.4,3.2,4.9,5.4c8,12,19.6,19,31.2,18.8"/>
</svg>
